<mxfile host="app.diagrams.net" modified="2023-09-09T19:15:23.173Z" agent="Mozilla/5.0 (Windows NT 10.0; Win64; x64) AppleWebKit/537.36 (KHTML, like Gecko) Chrome/116.0.0.0 Safari/537.36 Edg/116.0.1938.76" etag="joPAkKBEBBIjm7TGF0Ym" version="21.7.4" type="device">
  <diagram name="Page-1" id="NvYsgmHuKh8rIyeqC3Zi">
    <mxGraphModel dx="3798" dy="1180" grid="1" gridSize="10" guides="1" tooltips="1" connect="1" arrows="1" fold="1" page="1" pageScale="1" pageWidth="850" pageHeight="1100" math="0" shadow="0">
      <root>
        <mxCell id="0" />
        <mxCell id="1" parent="0" />
        <mxCell id="RY-IQyuG8uCWhhPZZtuC-4" value="" style="edgeStyle=orthogonalEdgeStyle;rounded=0;orthogonalLoop=1;jettySize=auto;html=1;exitX=0.5;exitY=1;exitDx=0;exitDy=0;" edge="1" parent="1" source="RY-IQyuG8uCWhhPZZtuC-1" target="RY-IQyuG8uCWhhPZZtuC-3">
          <mxGeometry relative="1" as="geometry" />
        </mxCell>
        <mxCell id="RY-IQyuG8uCWhhPZZtuC-49" value="" style="edgeStyle=orthogonalEdgeStyle;rounded=0;orthogonalLoop=1;jettySize=auto;html=1;" edge="1" parent="1" source="RY-IQyuG8uCWhhPZZtuC-1" target="RY-IQyuG8uCWhhPZZtuC-48">
          <mxGeometry relative="1" as="geometry" />
        </mxCell>
        <mxCell id="RY-IQyuG8uCWhhPZZtuC-1" value="BLOQUE_EJEC: SENTENCIA | BLOQUE_EJEC SENTENCIA" style="rounded=0;whiteSpace=wrap;html=1;" vertex="1" parent="1">
          <mxGeometry x="585" y="270" width="360" height="60" as="geometry" />
        </mxCell>
        <mxCell id="RY-IQyuG8uCWhhPZZtuC-6" value="" style="edgeStyle=orthogonalEdgeStyle;rounded=0;orthogonalLoop=1;jettySize=auto;html=1;entryX=0.5;entryY=0;entryDx=0;entryDy=0;" edge="1" parent="1" source="RY-IQyuG8uCWhhPZZtuC-3" target="RY-IQyuG8uCWhhPZZtuC-7">
          <mxGeometry relative="1" as="geometry">
            <mxPoint x="239.9999999999999" y="610" as="targetPoint" />
          </mxGeometry>
        </mxCell>
        <mxCell id="RY-IQyuG8uCWhhPZZtuC-34" style="edgeStyle=orthogonalEdgeStyle;rounded=0;orthogonalLoop=1;jettySize=auto;html=1;entryX=0.5;entryY=0;entryDx=0;entryDy=0;" edge="1" parent="1" source="RY-IQyuG8uCWhhPZZtuC-3" target="RY-IQyuG8uCWhhPZZtuC-30">
          <mxGeometry relative="1" as="geometry" />
        </mxCell>
        <mxCell id="RY-IQyuG8uCWhhPZZtuC-41" value="" style="edgeStyle=orthogonalEdgeStyle;rounded=0;orthogonalLoop=1;jettySize=auto;html=1;" edge="1" parent="1" source="RY-IQyuG8uCWhhPZZtuC-3" target="RY-IQyuG8uCWhhPZZtuC-40">
          <mxGeometry relative="1" as="geometry" />
        </mxCell>
        <mxCell id="RY-IQyuG8uCWhhPZZtuC-43" value="" style="edgeStyle=orthogonalEdgeStyle;rounded=0;orthogonalLoop=1;jettySize=auto;html=1;" edge="1" parent="1" source="RY-IQyuG8uCWhhPZZtuC-3" target="RY-IQyuG8uCWhhPZZtuC-42">
          <mxGeometry relative="1" as="geometry" />
        </mxCell>
        <mxCell id="RY-IQyuG8uCWhhPZZtuC-45" value="" style="edgeStyle=orthogonalEdgeStyle;rounded=0;orthogonalLoop=1;jettySize=auto;html=1;" edge="1" parent="1" source="RY-IQyuG8uCWhhPZZtuC-3" target="RY-IQyuG8uCWhhPZZtuC-44">
          <mxGeometry relative="1" as="geometry" />
        </mxCell>
        <mxCell id="RY-IQyuG8uCWhhPZZtuC-52" value="" style="edgeStyle=orthogonalEdgeStyle;rounded=0;orthogonalLoop=1;jettySize=auto;html=1;" edge="1" parent="1" source="RY-IQyuG8uCWhhPZZtuC-3" target="RY-IQyuG8uCWhhPZZtuC-51">
          <mxGeometry relative="1" as="geometry" />
        </mxCell>
        <mxCell id="RY-IQyuG8uCWhhPZZtuC-54" value="" style="edgeStyle=orthogonalEdgeStyle;rounded=0;orthogonalLoop=1;jettySize=auto;html=1;" edge="1" parent="1" source="RY-IQyuG8uCWhhPZZtuC-3" target="RY-IQyuG8uCWhhPZZtuC-53">
          <mxGeometry relative="1" as="geometry" />
        </mxCell>
        <mxCell id="RY-IQyuG8uCWhhPZZtuC-56" value="" style="edgeStyle=orthogonalEdgeStyle;rounded=0;orthogonalLoop=1;jettySize=auto;html=1;" edge="1" parent="1" source="RY-IQyuG8uCWhhPZZtuC-3" target="RY-IQyuG8uCWhhPZZtuC-55">
          <mxGeometry relative="1" as="geometry" />
        </mxCell>
        <mxCell id="RY-IQyuG8uCWhhPZZtuC-3" value="SENTENCIA: IF | ciclo | etc" style="rounded=0;whiteSpace=wrap;html=1;" vertex="1" parent="1">
          <mxGeometry x="705" y="430" width="120" height="60" as="geometry" />
        </mxCell>
        <mxCell id="RY-IQyuG8uCWhhPZZtuC-11" value="" style="edgeStyle=orthogonalEdgeStyle;rounded=0;orthogonalLoop=1;jettySize=auto;html=1;" edge="1" parent="1" source="RY-IQyuG8uCWhhPZZtuC-7" target="RY-IQyuG8uCWhhPZZtuC-10">
          <mxGeometry relative="1" as="geometry" />
        </mxCell>
        <mxCell id="RY-IQyuG8uCWhhPZZtuC-7" value="&amp;nbsp;SENTENCIA: if pa CONDICION pc lla PROGRAMA llc&amp;nbsp;&lt;br&gt;&amp;nbsp;SENTENCIA: if pa CONDICION pc lla PROGRAMA llc&lt;br&gt;&lt;span style=&quot;white-space: pre;&quot;&gt;&#x9;&lt;/span&gt;&lt;span style=&quot;white-space: pre;&quot;&gt;&#x9;&lt;/span&gt;&lt;span style=&quot;white-space: pre;&quot;&gt;&#x9;&lt;/span&gt;else lla PROGRAMA llc" style="rounded=0;whiteSpace=wrap;html=1;align=left;" vertex="1" parent="1">
          <mxGeometry x="30" y="530" width="320" height="60" as="geometry" />
        </mxCell>
        <mxCell id="RY-IQyuG8uCWhhPZZtuC-13" value="" style="edgeStyle=orthogonalEdgeStyle;rounded=0;orthogonalLoop=1;jettySize=auto;html=1;" edge="1" parent="1" source="RY-IQyuG8uCWhhPZZtuC-10" target="RY-IQyuG8uCWhhPZZtuC-12">
          <mxGeometry relative="1" as="geometry">
            <Array as="points">
              <mxPoint x="200" y="740" />
              <mxPoint x="765" y="740" />
            </Array>
          </mxGeometry>
        </mxCell>
        <mxCell id="RY-IQyuG8uCWhhPZZtuC-18" style="edgeStyle=orthogonalEdgeStyle;rounded=0;orthogonalLoop=1;jettySize=auto;html=1;entryX=0.5;entryY=0;entryDx=0;entryDy=0;" edge="1" parent="1" source="RY-IQyuG8uCWhhPZZtuC-10" target="RY-IQyuG8uCWhhPZZtuC-17">
          <mxGeometry relative="1" as="geometry" />
        </mxCell>
        <mxCell id="RY-IQyuG8uCWhhPZZtuC-24" value="" style="edgeStyle=orthogonalEdgeStyle;rounded=0;orthogonalLoop=1;jettySize=auto;html=1;" edge="1" parent="1" source="RY-IQyuG8uCWhhPZZtuC-10" target="RY-IQyuG8uCWhhPZZtuC-17">
          <mxGeometry relative="1" as="geometry" />
        </mxCell>
        <mxCell id="RY-IQyuG8uCWhhPZZtuC-29" style="edgeStyle=orthogonalEdgeStyle;rounded=0;orthogonalLoop=1;jettySize=auto;html=1;entryX=0.5;entryY=0;entryDx=0;entryDy=0;" edge="1" parent="1" source="RY-IQyuG8uCWhhPZZtuC-10" target="RY-IQyuG8uCWhhPZZtuC-25">
          <mxGeometry relative="1" as="geometry" />
        </mxCell>
        <mxCell id="RY-IQyuG8uCWhhPZZtuC-10" value="CONDICION: COMPARACION&lt;br&gt;CONDICION: CONDICION OP_LOG COMPARACION&lt;br&gt;" style="rounded=0;whiteSpace=wrap;html=1;align=left;" vertex="1" parent="1">
          <mxGeometry x="30" y="660" width="340" height="60" as="geometry" />
        </mxCell>
        <mxCell id="RY-IQyuG8uCWhhPZZtuC-12" value="OP_LOG&amp;nbsp;: and | or | etc" style="rounded=0;whiteSpace=wrap;html=1;align=left;" vertex="1" parent="1">
          <mxGeometry x="670" y="760" width="190" height="60" as="geometry" />
        </mxCell>
        <mxCell id="RY-IQyuG8uCWhhPZZtuC-20" value="" style="edgeStyle=orthogonalEdgeStyle;rounded=0;orthogonalLoop=1;jettySize=auto;html=1;" edge="1" parent="1" source="RY-IQyuG8uCWhhPZZtuC-17" target="RY-IQyuG8uCWhhPZZtuC-19">
          <mxGeometry relative="1" as="geometry" />
        </mxCell>
        <mxCell id="RY-IQyuG8uCWhhPZZtuC-17" value="EXP: TERMINO |&lt;br&gt;&lt;span style=&quot;white-space: pre;&quot;&gt;&#x9;&lt;/span&gt;EXPRESION op_sum TERMINO |&lt;br&gt;&lt;span style=&quot;white-space: pre;&quot;&gt;&#x9;&lt;/span&gt;EXPRESION op_res TERMINO" style="rounded=0;whiteSpace=wrap;html=1;align=left;" vertex="1" parent="1">
          <mxGeometry x="-130" y="760" width="310" height="60" as="geometry" />
        </mxCell>
        <mxCell id="RY-IQyuG8uCWhhPZZtuC-22" value="" style="edgeStyle=orthogonalEdgeStyle;rounded=0;orthogonalLoop=1;jettySize=auto;html=1;" edge="1" parent="1" source="RY-IQyuG8uCWhhPZZtuC-19" target="RY-IQyuG8uCWhhPZZtuC-21">
          <mxGeometry relative="1" as="geometry" />
        </mxCell>
        <mxCell id="RY-IQyuG8uCWhhPZZtuC-19" value="TERMINO: FACTOR |&lt;br&gt;&lt;span style=&quot;white-space: pre;&quot;&gt;&#x9;&lt;/span&gt;&lt;span style=&quot;white-space: pre;&quot;&gt;&#x9;&lt;/span&gt;&amp;nbsp; TERMINO op_mul FACTOR |&lt;br&gt;&lt;span style=&quot;white-space: pre;&quot;&gt;&#x9;&lt;/span&gt;&lt;span style=&quot;white-space: pre;&quot;&gt;&#x9;&lt;/span&gt;&amp;nbsp; TERMINO op_div&amp;nbsp; FACTOR" style="whiteSpace=wrap;html=1;align=left;rounded=0;" vertex="1" parent="1">
          <mxGeometry x="-130" y="850" width="310" height="60" as="geometry" />
        </mxCell>
        <mxCell id="RY-IQyuG8uCWhhPZZtuC-21" value="FACTOR: id | int | float | pa EXP pc" style="whiteSpace=wrap;html=1;align=left;rounded=0;" vertex="1" parent="1">
          <mxGeometry x="-120" y="940" width="290" height="60" as="geometry" />
        </mxCell>
        <mxCell id="RY-IQyuG8uCWhhPZZtuC-28" value="" style="edgeStyle=orthogonalEdgeStyle;rounded=0;orthogonalLoop=1;jettySize=auto;html=1;" edge="1" parent="1" source="RY-IQyuG8uCWhhPZZtuC-25" target="RY-IQyuG8uCWhhPZZtuC-27">
          <mxGeometry relative="1" as="geometry" />
        </mxCell>
        <mxCell id="RY-IQyuG8uCWhhPZZtuC-25" value="&lt;div style=&quot;&quot;&gt;&lt;span style=&quot;background-color: initial;&quot;&gt;COMPARACION: EXP COMPARADOR EXP&lt;/span&gt;&lt;/div&gt;" style="rounded=0;whiteSpace=wrap;html=1;align=left;" vertex="1" parent="1">
          <mxGeometry x="245" y="760" width="300" height="60" as="geometry" />
        </mxCell>
        <mxCell id="RY-IQyuG8uCWhhPZZtuC-27" value="COMPARADOR: &amp;gt;= | &amp;lt;= | etc" style="whiteSpace=wrap;html=1;rounded=0;align=left;" vertex="1" parent="1">
          <mxGeometry x="260" y="850" width="270" height="60" as="geometry" />
        </mxCell>
        <mxCell id="RY-IQyuG8uCWhhPZZtuC-30" value="SENTENCIA: ciclo pa CONDICION pc lla PROGRAMA llc" style="whiteSpace=wrap;html=1;rounded=0;align=left;" vertex="1" parent="1">
          <mxGeometry x="575" y="530" width="380" height="60" as="geometry" />
        </mxCell>
        <mxCell id="RY-IQyuG8uCWhhPZZtuC-40" value="SENTENCIA: id op_as EXP" style="whiteSpace=wrap;html=1;rounded=0;align=left;" vertex="1" parent="1">
          <mxGeometry x="1005" y="530" width="270" height="60" as="geometry" />
        </mxCell>
        <mxCell id="RY-IQyuG8uCWhhPZZtuC-42" value="SENTENCIA: write pa id pc | write pa string pc" style="whiteSpace=wrap;html=1;rounded=0;align=left;" vertex="1" parent="1">
          <mxGeometry x="1399" y="530" width="291" height="60" as="geometry" />
        </mxCell>
        <mxCell id="RY-IQyuG8uCWhhPZZtuC-44" value="SENTENCIA: read pa id pc" style="whiteSpace=wrap;html=1;rounded=0;align=left;" vertex="1" parent="1">
          <mxGeometry x="1780" y="530" width="260" height="60" as="geometry" />
        </mxCell>
        <mxCell id="RY-IQyuG8uCWhhPZZtuC-58" value="" style="edgeStyle=orthogonalEdgeStyle;rounded=0;orthogonalLoop=1;jettySize=auto;html=1;" edge="1" parent="1" source="RY-IQyuG8uCWhhPZZtuC-48" target="RY-IQyuG8uCWhhPZZtuC-57">
          <mxGeometry relative="1" as="geometry" />
        </mxCell>
        <mxCell id="RY-IQyuG8uCWhhPZZtuC-48" value="PROGRAMA: init lla DECLARACIONES llc BLOQUE_EJEC" style="whiteSpace=wrap;html=1;rounded=0;align=left;" vertex="1" parent="1">
          <mxGeometry x="600" y="130" width="330" height="60" as="geometry" />
        </mxCell>
        <mxCell id="RY-IQyuG8uCWhhPZZtuC-51" value="SENTENCIA: f_conc pa string coma string&amp;nbsp; coma EXP pc" style="whiteSpace=wrap;html=1;rounded=0;align=left;" vertex="1" parent="1">
          <mxGeometry x="-360" y="530" width="320" height="60" as="geometry" />
        </mxCell>
        <mxCell id="RY-IQyuG8uCWhhPZZtuC-53" value="SENTENCIA: timer_f pa EXP coma&amp;nbsp; write string pc" style="whiteSpace=wrap;html=1;rounded=0;align=left;" vertex="1" parent="1">
          <mxGeometry x="-730" y="530" width="330" height="60" as="geometry" />
        </mxCell>
        <mxCell id="RY-IQyuG8uCWhhPZZtuC-55" value="CONDICION: estacon_f pa string coma string pc&amp;nbsp;&amp;nbsp;" style="whiteSpace=wrap;html=1;rounded=0;" vertex="1" parent="1">
          <mxGeometry x="-1210" y="530" width="300" height="60" as="geometry" />
        </mxCell>
        <mxCell id="RY-IQyuG8uCWhhPZZtuC-60" value="" style="edgeStyle=orthogonalEdgeStyle;rounded=0;orthogonalLoop=1;jettySize=auto;html=1;" edge="1" parent="1" source="RY-IQyuG8uCWhhPZZtuC-57" target="RY-IQyuG8uCWhhPZZtuC-59">
          <mxGeometry relative="1" as="geometry" />
        </mxCell>
        <mxCell id="RY-IQyuG8uCWhhPZZtuC-62" value="" style="edgeStyle=orthogonalEdgeStyle;rounded=0;orthogonalLoop=1;jettySize=auto;html=1;" edge="1" parent="1" source="RY-IQyuG8uCWhhPZZtuC-57" target="RY-IQyuG8uCWhhPZZtuC-61">
          <mxGeometry relative="1" as="geometry" />
        </mxCell>
        <mxCell id="RY-IQyuG8uCWhhPZZtuC-64" value="" style="edgeStyle=orthogonalEdgeStyle;rounded=0;orthogonalLoop=1;jettySize=auto;html=1;" edge="1" parent="1" source="RY-IQyuG8uCWhhPZZtuC-57" target="RY-IQyuG8uCWhhPZZtuC-63">
          <mxGeometry relative="1" as="geometry" />
        </mxCell>
        <mxCell id="RY-IQyuG8uCWhhPZZtuC-57" value="&lt;br&gt;DECLARACIONES: DEC | DECLARACIONES DEC" style="whiteSpace=wrap;html=1;align=left;rounded=0;" vertex="1" parent="1">
          <mxGeometry x="1170" y="130" width="470" height="60" as="geometry" />
        </mxCell>
        <mxCell id="RY-IQyuG8uCWhhPZZtuC-59" value="TIPO: int | float | string" style="whiteSpace=wrap;html=1;align=left;rounded=0;" vertex="1" parent="1">
          <mxGeometry x="1030" y="310" width="185" height="60" as="geometry" />
        </mxCell>
        <mxCell id="RY-IQyuG8uCWhhPZZtuC-61" value="VAR: id | VAR coma id" style="whiteSpace=wrap;html=1;align=left;rounded=0;" vertex="1" parent="1">
          <mxGeometry x="1640" y="310" width="150" height="60" as="geometry" />
        </mxCell>
        <mxCell id="RY-IQyuG8uCWhhPZZtuC-63" value="DEC: VAR dos_p TIPO&amp;nbsp;" style="whiteSpace=wrap;html=1;align=left;rounded=0;" vertex="1" parent="1">
          <mxGeometry x="1295" y="310" width="220" height="60" as="geometry" />
        </mxCell>
      </root>
    </mxGraphModel>
  </diagram>
</mxfile>
